<svg xmlns="http://www.w3.org/2000/svg" width="24" height="24" viewBox="0 0 24 24" fill="currentColor">
  <path d="M12.738 18.701c-.831-1.635-1.805-3.287-3.708-4.379-1.247 3.049-3.117 5.623-6.466 6.972-.075-1.946.238-3.596.929-5.012 3.152 1.254 5.235-1.51 5.998-4.046-3.634-1.657-5.883-5.45-5.088-9.582 4.709 5.383 11.659 5.837 13.518 1.515.72 4.558-2.144 8.744-6.305 10.6.463 1.323 1.126 2.663 1.909 3.96.179.338.558.472.887.361 2.256-.753 4.689-1.753 6.37-3.285-.264 1.657-.784 3-1.56 4.162h-6.886z"/>
</svg>