{{/* layouts/partials/icons/social/logo-reddit.svg */}}
{{/* Icône Reddit basée sur Ionicons */}}
<svg xmlns="http://www.w3.org/2000/svg" viewBox="0 0 512 512">
  <title>Logo Reddit</title>
  <path fill="currentColor" d="M413.21 219.34c0-2.4-.19-4.69-.41-6.95a81.35 81.35 0 00-150.37-.41 81.35 81.35 0 00-150.37.41c-.22 2.26-.41 4.55-.41 6.95 0 45.3 41.91 81.93 93.84 81.93a90.69 90.69 0 0021.62-2.64 138.32 138.32 0 0089.84 0 90.69 90.69 0 0021.62 2.64c52 0 93.84-36.63 93.84-81.93zM157.74 285.79a34.19 34.19 0 1134.19-34.19 34.19 34.19 0 01-34.19 34.19zm196.52 0a34.19 34.19 0 1134.19-34.19 34.19 34.19 0 01-34.19 34.19z"/>
  <path fill="currentColor" d="M256 33.79a222.21 222.21 0 00-143.19 51.5 137.32 137.32 0 00-67.06 94.91c0 16.66-1 33.33-1 48.16 0 75.52 47.59 137.1 107.29 137.1 12.13 0 24.26-1.9 36.11-5.53a112 112 0 0073.61 0c11.85 3.63 24 5.53 36.11 5.53 59.7 0 107.29-61.58 107.29-137.1 0-14.83-.78-31.5-1-48.16a137.32 137.32 0 00-67.06-94.91A222.21 222.21 0 00256 33.79zm95.13 322.62a44.84 44.84 0 01-61.66 17.35 109.68 109.68 0 01-66.94 0 44.84 44.84 0 01-61.66-17.35C128 340.62 98.78 308 98.78 269.81c0-10.94.65-21.87 1.85-32.81h310.74c1.2 11 1.85 21.87 1.85 32.81 0 38.18-29.21 70.81-62.12 86.6z"/>
</svg>