<svg xmlns="http://www.w3.org/2000/svg" width="24" height="24" viewBox="0 0 24 24" fill="currentColor">
  <path d="M2.846 6.887c.03-.295-.083-.586-.303-.784l-2.24-2.7v-.403h6.958l5.378 11.795 4.728-11.795h6.633v.403l-1.916 1.837c-.165.126-.247.333-.213.538v13.5c-.034.205.048.412.213.538l1.87 1.837v.403h-9.412v-.403l1.937-1.882c.19-.19.19-.217.19-.538v-10.91l-5.45 13.688h-.728l-6.275-13.688v9.174c-.026.385.076.765.29 1.07l2.52 3.06v.404h-7.14v-.404l2.52-3.06c.214-.305.316-.685.29-1.07v-10.608z"/>
</svg>