<svg xmlns="http://www.w3.org/2000/svg" width="24" height="24" viewBox="0 0 24 24" fill="currentColor" stroke="currentColor" stroke-width="1" stroke-linecap="round" stroke-linejoin="round">
  <path d="M13.17,8.11c0.44-1.5,1.07-2.89,2.05-3.95C16.44,2.83,18.36,2,21,2v3.55c-1.79,0-3.06,0.29-3.95,0.73  c-1.27,0.62-1.86,1.87-1.96,3.4h-4.1V8.11z M13.17,17.36c0,2.05-0.53,3.72-1.6,5.05c-1.06,1.32-2.62,1.99-4.66,1.99V21  c1.76,0,2.97-0.28,3.65-0.83c0.98-0.79,1.48-2.11,1.48-3.95h4.03V4.89H8.89v12.47H13.17z"/>
</svg>